<svg width="33" height="40" viewBox="0 0 33 40" fill="none" xmlns="http://www.w3.org/2000/svg">
<path d="M16.5 0.799988C14.1131 0.799988 11.8239 1.81141 10.136 3.61176C8.44821 5.41211 7.5 7.85391 7.5 10.4C7.5 12.9461 8.44821 15.3879 10.136 17.1882C11.8239 18.9886 14.1131 20 16.5 20C18.8869 20 21.1761 18.9886 22.864 17.1882C24.5518 15.3879 25.5 12.9461 25.5 10.4C25.5 7.85391 24.5518 5.41211 22.864 3.61176C21.1761 1.81141 18.8869 0.799988 16.5 0.799988ZM5.27025 22.4C4.6776 22.3971 4.09026 22.5192 3.54196 22.7591C2.99365 22.9991 2.49518 23.3522 2.07517 23.7982C1.65516 24.2442 1.32188 24.7743 1.09447 25.3581C0.867058 25.9419 0.749994 26.5678 0.75 27.2C0.75 31.2584 2.62425 34.3184 5.55375 36.3128C8.43825 38.2736 12.3263 39.2 16.5 39.2C20.6737 39.2 24.5618 38.2736 27.4462 36.3128C30.3757 34.3208 32.25 31.256 32.25 27.2C32.25 25.927 31.7759 24.7061 30.932 23.8059C30.0881 22.9057 28.9435 22.4 27.75 22.4H5.27025Z" fill="black"/>
</svg>
